<?xml version="1.0" encoding="utf-8"?>
<!-- Generator: Adobe Illustrator 16.0.0, SVG Export Plug-In . SVG Version: 6.00 Build 0)  -->
<!DOCTYPE svg PUBLIC "-//W3C//DTD SVG 1.1//EN" "http://www.w3.org/Graphics/SVG/1.1/DTD/svg11.dtd">
<svg version="1.1" id="Слой_1" xmlns="http://www.w3.org/2000/svg" xmlns:xlink="http://www.w3.org/1999/xlink" x="0px" y="0px"
	 width="22.398px" height="22.981px" viewBox="0 0 22.398 22.981" enable-background="new 0 0 22.398 22.981" xml:space="preserve" fill="#7F7F7F">
<g>
	<path d="M18.399,0.219C18.307,0.082,18.157,0,17.994,0H4.405C4.243,0,4.093,0.082,3.999,0.219C3.92,0.336-3.816,12.1,2.442,22.738
		c0.09,0.15,0.25,0.243,0.423,0.243H8.89c0.223,0,0.418-0.152,0.474-0.371c0.068-0.26,1.218-4.64,1.834-8.03
		c0.617,3.391,1.767,7.771,1.836,8.03c0.058,0.219,0.253,0.371,0.475,0.371h6.024c0.174,0,0.332-0.093,0.424-0.243
		C26.213,12.1,18.478,0.336,18.399,0.219z M4.672,1.009h13.054c0.322,0.523,1.153,1.959,1.946,3.972
		c-1.395,0.623-6.468,2.994-8.473,5.405C9.196,7.976,4.12,5.604,2.727,4.981C3.519,2.97,4.349,1.533,4.672,1.009z M8.51,21.972
		H3.146c-3.263-5.765-2.24-11.877-0.771-16.046c1.435,0.646,6.593,3.082,8.228,5.321c-0.002,0.021-0.01,0.039-0.009,0.059
		C10.709,13.277,8.947,20.273,8.51,21.972z M19.255,21.972h-5.367c-0.437-1.699-2.2-8.695-2.081-10.665
		c0.001-0.021-0.008-0.038-0.01-0.059c1.633-2.238,6.792-4.675,8.228-5.321C21.495,10.095,22.517,16.207,19.255,21.972z
		 M5.487,20.462c0.156,0.229,0.104,0.543-0.116,0.703c-0.086,0.063-0.185,0.094-0.286,0.094c-0.153,0-0.306-0.073-0.4-0.212
		C2.08,17.287,2.928,10.992,2.965,10.726c0.039-0.277,0.292-0.462,0.558-0.428c0.269,0.04,0.456,0.296,0.417,0.571
		C3.931,10.93,3.111,17.034,5.487,20.462z M17.712,21.047c-0.096,0.139-0.248,0.212-0.4,0.212c-0.1,0-0.199-0.029-0.286-0.094
		c-0.222-0.16-0.273-0.476-0.115-0.703c2.38-3.434,1.557-9.53,1.548-9.593c-0.038-0.275,0.148-0.531,0.418-0.571
		c0.262-0.034,0.518,0.15,0.558,0.428C19.471,10.992,20.321,17.288,17.712,21.047z"/>
</g>
</svg>
