<?xml version="1.0" standalone="no"?>
<!DOCTYPE svg PUBLIC "-//W3C//DTD SVG 1.1//EN" "http://www.w3.org/Graphics/SVG/1.1/DTD/svg11.dtd">
<svg xmlns="http://www.w3.org/2000/svg">
<metadata>Generated by Fontastic.me</metadata>
<defs>
<font id="inkin-icons" horiz-adv-x="512">
<font-face font-family="inkin-icons" units-per-em="512" ascent="480" descent="-32"/>
<missing-glyph horiz-adv-x="512" />

<glyph glyph-name="activity" unicode="&#33;" d="M377 399c33 0 59 26 59 57 0 31-26 56-59 56-32 0-58-25-58-56 0-31 26-57 58-57z m0 92c21 0 38-16 38-35 0-20-17-36-38-36-20 0-37 16-37 36 0 19 17 35 37 35z m84-187l-53 4-33 72c0 1-1 1-1 2-2 3-3 5-6 7l-42 27c-4 3-9 5-14 7l-84 17c-9 2-19 0-28-5l-69-52c-8-6-31-25-17-45 10-13 32-9 44-2l69 36 29-6-56-80c-8-13-15-26-14-40l-40-57c-17-1-72-4-93-6-39-2-42-24-42-30 0-28 35-31 48-32 24-2 106-7 108-7 13 0 27 7 35 19l39 54 53-34-35-83c-21-49-7-64 4-68 3-1 7-2 10-2 24 0 42 32 48 44l59 107c7 17 2 37-14 47l0 0-65 43 37 57 12-28c4-10 15-20 28-22 1 0 1 0 2 0 2 0 59 1 75 2 11 1 45 3 46 25 1 26-26 28-40 29z m-277-160c-4-6-11-9-17-9-1 0-82 4-106 6-29 3-29 9-29 12 0 8 16 10 22 10 26 1 98 6 98 6 3 0 6 2 8 5l35 48c3-5 8-10 14-15 0 0 0 0 1 0l13-9z m93 100c-3-5-1-11 3-14l74-49c7-5 10-14 6-21l-58-107c-15-27-26-34-31-32-1 0-6 10 8 41l38 91c2 5 0 10-4 12l-91 58c-20 17-18 29-4 52l64 92c2 3 2 6 1 9-1 4-4 6-8 7l-47 10c-3 0-5 0-8-1l-73-38c-5-3-12-4-15-4-1 3 3 10 12 17l69 51c3 2 7 3 10 2l84-17c2-1 4-2 6-3 0-1 1-1 1-1l41-27c1-3-1-10-3-13z m177 27c-15-1-66-2-74-2-4 1-9 5-11 9l-17 42 16 25 23-50c2-4 5-6 9-6l59-5c20-2 21-4 21-7 0-1-4-5-26-6z"/>
<glyph glyph-name="alcohol" unicode="&#34;" d="M188 85c-2 0-1-1 0 0z m135 204l-134 0c-6 0 0-16 0-22l0-179c0-1 0-2-1-3 1 0 1 0 1 0l134 0c6 0 0 16 0 22l0 160c0 6 6 22 0 22z m-22-182l-90 0 0 93 90 0z m0 115l-90 0 0 45 90 0z m11 142l0 126c0 13-10 22-23 22l-66 0c-13 0-23-9-23-22l0-126c-21-10-55-33-55-90l0-243c0-17 14-31 31-31l160 0c17 0 31 14 31 31l0 243c0 57-36 81-55 90z m-23 126l-11-45-44 0-11 45z m56-459c0-5-4-9-9-9l-160 0c-5 0-9 4-9 9l0 243c0 48 30 65 48 71 5 2 19 6 19 11l0 67 44 0 0-67c0-5 14-9 19-11 11-3 48-20 48-71z"/>
<glyph glyph-name="alerts" unicode="&#35;" d="M479 143c0 13-10 20-21 27-24 17-64 45-64 158 0 64-38 113-99 128 2 5 3 10 3 15 0 23-19 41-42 41-23 0-42-18-42-41 0-5 1-10 3-15-61-15-99-64-99-128 0-113-40-141-64-158-11-7-21-14-21-27 0-37 50-56 163-60-2-7-4-14-4-22 0-33 29-61 64-61 35 0 64 28 64 61 0 8-2 15-4 22 113 4 163 23 163 60m-223 349c12 0 21-10 21-21 0-11-9-20-21-20-12 0-21 9-21 20 0 11 9 21 21 21m0-472c-23 0-42 19-42 41 0 8 2 15 5 21 24 0 50 0 74 0 3-6 5-13 5-21 0-22-19-41-42-41m0 82c-166 0-201 23-201 41 0 2 7 7 11 10 26 18 73 52 73 175 0 57 36 100 92 110 7-5 16-8 25-8 9 0 18 3 25 8 56-10 92-53 92-110 0-123 47-157 73-175 4-3 11-8 11-10 0-18-35-41-201-41"/>
<glyph glyph-name="calendar" unicode="&#36;" d="M491 471l-71 0 0 21c0 11-9 20-21 20l-20 0c-12 0-21-9-21-20l0-21-204 0 0 21c0 11-9 20-21 20l-20 0c-12 0-21-9-21-20l0-21-72 0c-11 0-20-9-20-20l0-431c0-11 9-20 20-20l472 0c11 0 20 9 20 20l0 431c0 11-9 20-21 20z m-112 21l20 0 0-62-20 0-1 61c0 0 0 1 1 1z m-266 0l20 0 0-62-20 0-1 61c0 0 0 1 1 1z m378-472l-471 0 0 328 472 0 0-328z m0 349l-471 0 0 82 72 0 0-21c0-12 9-20 21-20l20 0c12 0 21 8 21 20l0 21 204 0 0-21c0-12 9-20 21-20l20 0c12 0 21 8 21 20l0 21 72 0 0-82z m-419-308l368 0c6 0 11 5 11 11l0 215c0 5-5 10-11 10l-368 0c-6 0-11-5-11-10l0-215c0-6 5-11 11-11z m286 215l72 0 0-51-72 0z m0-71l72 0 0-51-72 0z m0-72l72 0 0-51-72 0z m-92 143l72 0 0-51-72 0z m0-71l72 0 0-51-72 0z m0-72l72 0 0-51-72 0z m-92 143l72 0 0-51-72 0z m0-71l72 0 0-51-72 0z m0-72l72 0 0-51-72 0z m-92 143l72 0 0-51-72 0z m0-71l72 0 0-51-72 0z m0-72l72 0 0-51-72 0z"/>
<glyph glyph-name="clock" unicode="&#37;" d="M256 480c123 0 224-101 224-224 0-123-101-224-224-224-123 0-224 101-224 224 0 123 101 224 224 224m0 32c-141 0-256-115-256-256 0-141 115-256 256-256 141 0 256 115 256 256 0 141-115 256-256 256z m32-128l-32 0 0-160 32 0z m-32-160l0 32-96 0 0-32z"/>
<glyph glyph-name="country" unicode="&#38;" d="M256 512l0 0c0 0 0 0 0 0-141 0-256-115-256-256 0-141 115-256 256-256 141 0 256 115 256 256 0 141-115 256-256 256m-133-246l-102 0c2 50 20 96 48 134 20-11 43-20 68-26-8-33-13-69-14-108m35 103c28-6 57-10 88-10l0-93-103 0c1 37 6 72 15 103m-35-123c1-39 6-75 14-107-25-7-48-16-67-27-29 38-47 84-49 134l102 0m20 0l103 0 0-92c-31-1-61-5-88-10-9 30-14 65-15 102m123 113c31 0 61 4 88 10 9-31 14-66 14-103l-102 0 0 93m0-113l102 0c0-37-5-72-14-103-28 6-57 10-88 11l0 92m123 0l102 0c-2-50-20-96-48-134-20 11-43 20-68 27 8 32 13 68 14 107m0 20c-1 39-6 75-14 107 25 7 48 16 67 27 29-37 47-84 49-134l-102 0m40 150c-18-9-38-17-60-23-12 38-30 69-51 90 43-12 81-35 111-67m-80-28c-26-5-54-8-83-9l0 111c34-6 64-46 83-102m-103 102l0-111c-29 1-56 4-82 9 18 57 48 96 82 102m-52-7c-21-21-39-52-51-90-22 6-42 14-60 23 30 31 68 55 111 67m-111-387c18 10 38 17 60 23 12-38 30-69 51-90-43 12-81 36-111 67m80 28c26 5 54 9 83 9l0-111c-34 6-64 46-83 102m103-102l0 111c29 0 56-4 82-9-18-56-48-96-82-102m52 7c21 21 39 52 51 90 22-6 42-13 60-23-30-31-68-55-111-67"/>
<glyph glyph-name="device" unicode="&#39;" d="M500 260c0 0 0 1 0 1l-1 1c-18 49-49 97-92 141-66 67-148 109-214 109-32 0-59-10-78-29l-39-40-34-35-2-1c-29-30-36-77-21-134 15-56 50-114 100-164 66-67 148-109 214-109l0 0c30 0 56 9 75 26l0 0 2 3c1 0 1 0 1 0 0 0 0 1 0 1l37 37c7 7 13 15 17 24 13 25 15 57 8 93 0 1 0 1 0 2 0 0 0 1 0 1 0 0 0 0 0 0 0 1-1 1-1 2 0 1 0 2 0 3-1 1-1 1-1 2 0 0 0 1 0 1 0 1-1 2-1 2-1 4-2 9-3 13-1 3-2 5-3 7 0 0 0 0 0 0 0 1 0 2-1 3l29 29 1 1 1 2 1 1 2 2 1 1 1 1 2 1 0 1z m-65-187c0 1 1 2 1 2 0 3 1 5 1 8 0 0 1 0 1 0l1 8 0 0c7 61-25 141-84 211l29 30c30-35 52-72 66-109l0 0 1-1c0-1 0-2 0-2 5-12 8-24 11-35 7-35 5-66-7-89-4-8-9-15-15-21l-6-6c1 1 1 3 1 4z m-27 14c-63 0-142 41-207 106-73 75-114 169-102 234 2 9 5 18 8 25 14 7 30 11 48 11 36 0 78-14 120-38l-16-16-21-22 1-1 5-3c9-5 18-11 27-18 6-5 13-10 19-15 12-10 23-20 34-31 3-3 6-7 9-10 1 0 2-1 2-2 3-3 6-6 8-9l0 0c61-70 93-150 84-209-6-1-13-2-19-2z m-16 253l-2 3c0 0-1 1-1 1l-4 5 0 0c-5 5-10 10-15 16-24 24-50 45-77 62l0 0-6 4c0 0 0 0 0 0l-4 2 0 0c-44 27-89 41-128 41-14 0-27-2-38-6l6 7c16 17 41 26 70 26 63 0 142-41 206-106 40-41 71-88 89-134l-29-29c-15 37-38 74-67 108z m-305 98c1 2 3 3 4 4-1-4-2-8-3-13-13-70 29-166 105-244 67-67 149-109 215-109 5 0 11 0 17 1-1-2-1-3-2-5 0-1 0-1 0-2-1-1-1-3-2-4 0-1 0-1-1-2 0-2-1-3-2-5l0-1c-4-8-9-15-15-21-17-17-41-26-70-26-63 0-142 41-206 106-48 49-83 105-97 159-15 53-8 96 18 123z"/>
<glyph glyph-name="email" unicode="&#40;" d="M498 133l-16 0c-2 0-4-1-5-2-11-15-24-29-39-42-14-13-31-25-49-35-17-9-36-17-56-22-20-6-41-9-63-9-33 0-65 6-94 15-29 10-55 25-78 45-22 19-40 44-53 73-13 29-19 63-19 102 0 32 6 62 18 90 12 27 30 52 52 73 21 20 47 37 77 49 30 12 62 18 97 18 31 0 60-5 86-14 27-9 50-22 69-39 19-17 34-37 45-60 11-23 16-49 16-77 0-25-4-48-13-69-9-22-20-40-34-56-13-15-28-28-44-36-16-9-31-14-45-14-8 0-14 2-18 5-4 3-6 7-7 13-1 6 0 13 2 21 2 9 6 19 10 29l81 199c1 2 1 4 0 5-1 2-3 2-5 2l-15 0c-3 0-5-1-5-3l-14-35c-7 15-19 26-35 35-19 11-41 17-65 17-27 0-52-7-74-20-22-13-41-30-56-51-16-20-28-42-36-66-9-24-13-47-13-69 0-15 3-28 8-41 5-13 13-24 22-34 9-9 20-17 33-23 28-12 62-10 96 1 15 5 29 14 41 26 1-8 5-15 11-21 9-9 22-14 38-14 18 0 37 5 57 16 19 10 37 25 53 43 15 18 28 39 38 63 10 24 15 50 15 77 0 32-6 62-19 89-13 26-30 49-52 67-22 19-48 33-77 43-29 10-61 15-94 15-37 0-72-6-104-19-33-13-62-31-87-53-24-23-44-50-58-81-14-30-21-65-21-101 0-45 8-84 23-116 16-33 37-60 62-81 25-21 55-36 87-46 32-10 65-15 98-15 23 0 46 3 68 9 23 6 44 14 65 25 20 11 39 24 56 39 17 16 32 33 44 52 1 2 1 4 0 6-1 1-3 2-5 2m-206 30c-8-10-17-18-27-24-9-6-18-10-28-12-23-5-44-5-62 3-10 4-19 9-26 17-7 7-13 16-17 26-4 9-6 20-6 32 0 19 3 39 11 60 7 21 18 41 31 59 13 18 29 33 48 45 18 11 38 17 60 17 9 0 18-1 27-3 10-2 19-5 27-9 9-5 16-11 23-18 6-7 10-16 13-27l-51-126c-6-16-14-29-23-40"/>
<glyph glyph-name="feeding" unicode="&#41;" d="M503 434c6 6 9 13 9 21 0 9-4 18-13 27l-17 17c-8 9-18 13-27 13-8 0-15-3-21-9l-23-23c-2-2-9-2-12 0-30 18-59 14-86-13l-25-25c-4-4-6-9-6-14 0-1 0-2 1-4-38 11-81 1-110-29l-140-139c-44-44-44-116 0-160l63-63c21-21 50-33 80-33 30 0 58 12 80 33l139 140c30 29 40 72 29 110 2 0 3-1 5-1 5 0 10 2 13 6l25 24c27 28 31 57 12 88-1 2-1 9 1 11l23 23m-118-240c-1 1-1 2-2 3l-39 39c-4 4-11 4-16 0-4-4-4-11 0-16l39-39c1-1 2-1 3-2l-48-48c0 1-1 2-2 3l-39 39c-4 5-11 5-16 0-4-4-4-11 0-15l40-39c0-1 2-2 3-3l-48-47c-1 1-1 2-2 3l-40 39c-4 4-11 4-15 0-5-5-5-12 0-16l39-39c1-1 2-2 3-2l-5-5c-17-17-40-27-64-27-24 0-47 10-64 27l-63 63c-36 35-36 93 0 128l139 140c18 17 41 26 65 26 18 0 37-6 53-17 5-6 12-12 19-19l40-41c9-8 16-15 23-22 25-33 24-80-3-113m75 194c14-22 11-40-9-60l-23-23c-5 1-14 8-24 17-2 4-5 7-9 11l-63 62c-3 4-7 7-11 11-9 9-16 17-16 21l23 24c20 20 38 23 60 10 8-5 27-8 39 3l23 23c2 2 4 3 5 3 3 0 7-3 11-7l18-17c0 0 0 0 0 0 4-4 6-8 6-11 0-1 0-3-3-5l-23-23c-10-11-9-30-4-39"/>
<glyph glyph-name="gestation" unicode="&#42;" d="M256 389c34 0 62 28 62 62 0 33-28 61-62 61-34 0-61-28-61-61 0-34 27-62 61-62m0 102c23 0 41-18 41-40 0-23-18-41-41-41-22 0-41 18-41 41 0 22 19 40 41 40m60-116c-2 2-5 4-8 4l-103 0c-3 0-6-2-8-4-3-4-64-87-64-232 0-5 5-10 10-10l63 0 10-114c2-11 12-19 26-19l28 0c12 0 23 8 25 19l12 114 62 0c6 0 10 5 10 10 0 147-61 228-63 232m-41-352c-1-1-3-3-5-3l-28 0c-3 0-5 1-5 1 0 0 0 0 0 0l-11 112 60 0-11-110m22 131c0 0 0 0 0 0l-82 0c0 0 0 0 0 0l-61 0c2 114 45 187 56 204l92 0c12-17 54-89 57-204l-62 0m-41 112c5 8 15 22 25 22 16 0 29-13 29-30 0-34-39-52-54-63-14 13-54 29-54 63 0 17 13 30 30 30 10 0 19-14 24-22"/>
<glyph glyph-name="height" unicode="&#43;" d="M509 406l-102 103c-4 4-11 4-15 0l-389-379c-2-2-3-5-3-8 0-2 1-5 3-7l113-113c2-2 4-3 7-3 0 0 0 0 0 0 3 0 5 1 7 3l379 390c4 4 4 10 0 14m-386-382l-98 98 32 31 18-17c4-4 10-4 14 0 4 4 4 10 0 14l-17 18 26 26 38-38c4-4 11-4 15 0 4 4 4 11 0 15l-38 37 27 26 17-16c4-4 10-4 14 0 4 4 4 10 0 14l-16 17 26 26 37-37c4-4 10-4 15 0 4 4 4 11 0 15l-37 36 27 26 16-15c4-4 10-4 14 0 4 4 4 10 0 14l-15 16 26 26 36-36c4-4 10-4 14 0 4 4 4 11 0 15l-35 35 27 26 14-14c4-4 11-4 15 0 4 4 4 10 0 14l-14 15 26 26 35-35c4-4 10-4 14 0 4 4 4 11 0 15l-34 34 27 26 13-13c4-4 11-4 15 0 1 1 2 2 2 3l68-68-364-375"/>
<glyph glyph-name="live-feed" unicode="&#44;" d="M512 365c0 17-12 48-52 48l0 1-100 0 0-20 59 0c-7-10-10-21-10-28l0-239c0-6 5-10 11-10 5 0 10 4 10 10l0 238c0 3 2 29 30 29 29 0 31-26 31-29l0-247 0 0c0-65-58-66-61-66-3 0-71 1-71 66l0 352c0 6-5 10-11 10l-337 0c-6 0-11-4-11-10l0-352c0-26 8-46 25-61 26-24 63-25 67-25 0 0 0 0 0 0l328 0 0 1c3-1 7-1 10-1 0 0 0 0 0 0 1 0 21 0 41 11 19 10 41 31 41 75l0 0 0 247m-420-313c0 0 0 0 0 0 0 0-32 0-52 19-13 11-19 27-19 47l0 342 317 0 0-342c0-32 13-53 31-66l-277 0m63 219c0-6-5-10-11-10l-72 0c-6 0-11 4-11 10 0 5 5 10 11 10l72 0c6 0 11-5 11-10m0-40c0-5-5-9-11-9l-72 0c-6 0-11 4-11 9 0 6 5 10 11 10l72 0c6 0 11-4 11-10m132-113c0-6-5-10-11-10l-81 0c-6 0-11 4-11 10 0 5 5 10 11 10l81 0c6 0 11-5 11-10m-132-5c0-5-5-10-11-10l-72 0c-6 0-11 5-11 10 0 6 5 10 11 10l72 0c6 0 11-4 11-10m0 79c0-6-5-10-11-10l-72 0c-6 0-11 4-11 10 0 5 5 10 11 10l72 0c6 0 11-5 11-10m0-39c0-6-5-10-11-10l-72 0c-6 0-11 4-11 10 0 5 5 9 11 9l72 0c6 0 11-4 11-9m132 118c0-6-5-10-11-10l-81 0c-6 0-11 4-11 10 0 5 5 10 11 10l81 0c6 0 11-5 11-10m0 79c0-6-5-10-11-10l-209 0c-6 0-11 4-11 10 0 5 5 9 11 9l209 0c6 0 11-4 11-9m0-195c0-6-5-10-11-10l-81 0c-6 0-11 4-11 10 0 5 5 10 11 10l81 0c6 0 11-5 11-10m0 234c0-5-5-10-11-10l-209 0c-6 0-11 5-11 10 0 5 5 10 11 10l209 0c6 0 11-5 11-10m0-195c0-5-5-10-11-10l-81 0c-6 0-11 5-11 10 0 6 5 10 11 10l81 0c6 0 11-4 11-10m0 37c0-5-5-9-11-9l-81 0c-6 0-11 4-11 9 0 6 5 10 11 10l81 0c6 0 11-4 11-10"/>
<glyph glyph-name="lock" unicode="&#45;" d="M449 319l-34 0 0 68c0 69-89 125-159 125-70 0-159-56-159-125l0-68-34 0c-19 0-35-16-35-35l0-250c0-19 16-34 35-34l386 0c19 0 35 15 35 34l0 250c0 19-16 35-35 35z m-329 68c0 56 79 102 136 102 57 0 136-46 136-102l0-68-272 0z m341-353c0-6-6-11-12-11l-386 0c-6 0-12 5-12 11l0 250c0 7 6 12 12 12l386 0c6 0 12-5 12-12z m-205 182c-19 0-34-15-34-34 0-10 4-19 11-25l0-32c0-12 10-23 23-23 13 0 23 11 23 23l0 32c7 6 11 15 11 25 0 19-15 34-34 34z"/>
<glyph glyph-name="m-input" unicode="&#46;" d="M448 335l0-271c0-35-29-64-64-64l-320 0c-35 0-64 29-64 64l0 320c0 35 29 64 64 64l271 0-64-64-207 0 0-320 320 0 0 207z m-49 132l-23-23 68-68 23 23z m45 45l-23-23 68-68 23 23z m-294-294l68-68 203 204-67 67z m-22-90l64 0-64 64z"/>
<glyph glyph-name="marker" unicode="&#47;" d="M256 512c-106 0-192-83-192-186 0-53 53-147 53-147l132-179 138 177c0 0 61 90 61 149 0 103-86 186-192 186z m-1-289c-61 0-110 48-110 108 0 59 49 107 110 107 61 0 110-48 110-107 0-60-49-108-110-108z"/>
<glyph glyph-name="parameters" unicode="&#48;" d="M256 348c-51 0-92-41-92-92 0-51 41-92 92-92 51 0 92 41 92 92 0 51-41 92-92 92z m0-164c-40 0-72 33-72 72 0 40 32 72 72 72 40 0 72-32 72-72 0-40-32-72-72-72z m256 33l0 79-75 12c-4 14-10 27-16 39l43 63-55 55-62-44c-12 7-25 12-39 16l-13 75-79 0-12-75c-14-3-27-9-39-16l-62 44-56-55 44-62c-7-13-13-26-17-40l-74-12 0-79 74-13c4-14 10-27 17-40l-44-61 55-55 62 43c13-7 26-12 40-16l12-75 79 0 13 75c14 4 27 9 39 16l63-43 55 55-44 62c7 12 12 25 16 39z m-74-112l-31-31-59 42-6-4c-14-9-29-15-45-19l-7-2-12-71-45 0-11 71-7 2c-16 4-32 10-46 19l-6 3-58-41-31 31 41 58-3 6c-9 15-16 30-20 46l-1 7-71 12 0 45 71 11 1 7c4 16 11 32 20 46l3 6-41 58 31 31 59-41 5 3c15 9 30 15 46 19l7 2 12 71 44 0 12-71 7-2c16-4 31-10 45-19l6-4 59 42 31-31-42-59 4-6c8-14 15-29 19-45l1-7 72-12 0-44-72-12-1-7c-4-16-11-31-19-45l-4-6z"/>
<glyph glyph-name="questionnaire" unicode="&#49;" d="M119 174l274 0 0 21-274 0z m0 53l274 0 0 21-274 0z m0-107l137 0 0 22-137 0z m322 371l-90 0 0 21-190 0 0-21-90 0c-14 0-26-13-26-27l0-437c0-15 12-27 26-27l370 0c14 0 26 12 26 27l0 437c0 14-12 27-26 27z m-259 0l148 0 0-64-148 0z m264-464c0-3-2-6-5-6l-370 0c-3 0-5 3-5 6l0 437c0 3 2 5 5 5l90 0 0-64 190 0 0 64 90 0c3 0 5-2 5-5z m-327 253l274 0 0 22-274 0z m0 32l274 0 0 21-274 0z"/>
<glyph glyph-name="reports" unicode="&#50;" d="M0 0l156 0 0 367-156 0 0-367m22 345l112 0 0-323-112 0 0 323m156-345l156 0 0 245-156 0 0-245m22 223l112 0 0-201-112 0 0 201m156 289l0-512 156 0 0 512-156 0m134-490l-112 0 0 468 112 0 0-468"/>
<glyph glyph-name="smoke" unicode="&#51;" d="M358 373c25 0 58-5 62-50 0-5 5-8 10-8 8 0 34-2 45-18 9-12 8-31-3-57-2-5 0-11 5-13 2 0 3 0 4 0 4 0 8 2 10 6 13 32 14 57 1 75-13 19-37 24-53 26-5 28-24 59-81 59-5 0-10-5-10-10 0-6 5-10 10-10z m144-166l-492 0c-5 0-10-4-10-10l0-78c0-5 5-9 10-9l492 0c5 0 10 4 10 9l0 78c0 6-5 10-10 10z m-113-78l-369 0 0 59 369 0z m51 0l-30 0 0 59 30 0z m52 0l-31 0 0 59 31 0z m-145 147c51-7 67-16 73-42 1-4 5-7 10-7 1 0 2 0 2 0 6 1 9 6 8 12-9 39-39 50-91 56-34 4-54 15-60 32-9 24 11 54 15 59 4 3 4 10 0 13-4 4-10 4-14 0-8-7-33-45-21-78 9-25 35-40 78-45z"/>
<glyph glyph-name="user" unicode="&#52;" d="M463 12l-414 0c-16 0-32 10-43 27-8 14-8 34 0 51l23 49c16 33 57 53 87 56 10 1 31 5 50 9 14 4 22 6 27 8-1 4-3 9-6 13-35 28-56 74-56 124 0 83 56 150 126 150 69 0 125-67 125-150 0-50-21-96-56-124-3-5-5-9-6-13 5-1 13-4 27-8 17-4 38-7 49-8 31-3 71-23 87-56l23-47c8-17 9-40 0-54-10-17-26-27-43-27z m-258 228c8-11 12-22 12-34 1-4-1-7-4-10-2-1-8-7-42-15-17-4-40-9-53-10-24-2-56-18-68-43l-23-48c-4-10-5-22-1-28 5-8 13-16 23-16l414 0c10 0 19 8 23 16 4 5 4 20-1 31l-23 47c-12 23-44 40-68 42-12 1-34 5-52 9-34 8-40 14-42 15-3 3-4 6-4 10 0 12 4 24 13 35 0 0 1 1 2 2 30 23 48 63 48 106 0 70-46 127-102 127-57 0-103-57-103-127 0-43 18-83 48-106 1-1 2-2 3-3z"/>
<glyph glyph-name="weight" unicode="&#53;" d="M462 500l-412 0c-28 0-50-23-50-50l0-388c0-27 22-50 50-50l412 0c27 0 50 23 50 50l0 388c0 27-23 50-50 50z m35-438c0-19-16-35-35-35l-412 0c-19 0-35 16-35 35l0 388c0 19 16 35 35 35l412 0c19 0 35-16 35-35z m-60 302c-45 46-108 74-178 74-70 0-134-29-179-75-1-1-1-1-2-2-1-2-2-5-2-8l0-1 1-1c2-3 5-6 7-10 19-25 38-50 57-75l5-6 11-15 4-5 12-15 1-2 1-1c2-3 4-6 8-7 0 0 1 0 1 0l0 0 151 0 0 0c4 0 7 3 9 5 0 1 0 1 1 2l1 1 4 6 12 16 11 14 5 7c19 25 38 50 57 74 2 4 5 8 8 11l0 1 0 1c0 2 0 4-1 6-1 3-2 4-5 5z m-105-131l-145 0-4 6-10 13c27 11 56 17 86 17 31 0 61-6 88-17z m26 34c-27 11-56 18-86 19-10 14-20 28-30 41-11 15-23 30-32 45-2 2-4 4-7 4-3 0-6-2-8-5-1-2-1-5 1-8l49-77c-29-1-58-8-83-19l-66 87c42 41 100 66 163 66 64 0 122-26 164-67z"/>
<glyph glyph-name="blood-type" unicode="&#54;" d="M270 70c0-8-6-14-14-14-66 0-119 53-119 118 0 8 6 14 14 14 8 0 14-6 14-14 0-50 41-90 91-90 8 0 14-7 14-14z m162 104c0-96-79-174-175-174l-1 0c-97 0-175 78-175 174 0 91 157 322 163 332 2 3 5 5 8 5 2 1 3 1 4 1 2 0 3 0 4-1 3 0 6-2 8-5 7-10 164-241 164-332z m-29 0c0 63-97 224-147 299-50-75-147-236-147-299 0-80 66-146 147-146 82 0 147 66 147 146z"/>
<glyph glyph-name="gender" unicode="&#55;" d="M389 389c34 0 62 28 62 62 0 33-28 61-62 61-34 0-61-28-61-61 0-34 27-62 61-62m0 103c23 0 41-19 41-41 0-23-18-41-41-41-22 0-41 18-41 41 0 22 19 41 41 41m-240-113l-93 0c-31 0-56-25-56-56l0-139c0 0 0 0 0 0 0-17 14-30 31-30 3 0 7 0 10 1l0-128c0-15 12-27 27-27l17 0c7 0 13 2 17 6 5-4 11-6 17-6l18 0c15 0 27 12 27 27l0 128c3-1 6-1 10-1 17 0 31 13 31 30 0 0 0 0 0 0l0 139c0 31-25 56-56 56m35-195c0-5-4-10-10-10-6 0-10 5-10 10l0 113c0 6-5 10-10 10-6 0-11-4-11-10l0-270c0-3-3-7-6-7l-18 0c-3 0-6 4-6 7l0 140c0 6-5 10-11 10-5 0-10-4-10-10l0-140c0-3-3-7-7-7l-17 0c-3 0-7 4-7 7l0 270c0 6-4 10-10 10-5 0-10-4-10-10l0-113c0-5-5-10-10-10-6 0-11 5-11 10l0 139c0 19 17 35 36 35l93 0c19 0 35-16 35-35l0-139m-82 205c34 0 62 28 62 62 0 33-28 61-62 61-33 0-61-28-61-61 0-34 28-62 61-62m0 103c23 0 41-19 41-41 0-23-18-41-41-41-22 0-41 18-41 41 0 22 19 41 41 41m409-331c0 0 0 0 0 0l-66 204c-2 8-10 14-19 14l-74 0c-9 0-16-6-19-14l-66-205c-2-6-1-12 3-18 3-5 10-9 16-9l53 0 11-114c1-11 12-19 25-19l28 0c13 0 24 8 25 19l11 114 53 0c7 0 13 4 17 9 3 6 4 12 2 19m-103-139c-1-1-2-2-5-2l-28 0c-2 0-4 1-5 2l-10 111 59 0-11-111m23 132c0 0 0 0 0 0-1 0-1 0-2 0l-79-1c-1 1-2 1-3 1 0 0 0-1-1-1l-59 0c0 1 0 1 0 1l65 204 74 1 66-204c0-1 0-1 0-1l-61 0"/>
<glyph glyph-name="zip" unicode="&#56;" d="M451 370l-125 108c0 0-34 34-70 34-36 0-70-34-70-34l-125-108-61-51 0-279c0-22 18-40 41-40l430 0c23 0 41 18 41 40l0 279z m-390-26l154 134c0 0 16 8 41 8 25 0 39-8 39-8l156-134 30-25-186-160-80 0-133 116-21 16-30 28z m-34-318c-4 4-7 8-7 14l0 259 164-140z m24-6l144 119 122 0 144-119z m441 20c0-6-3-10-7-14l-157 133 164 140z m-262 216l-76 0 0 51 25 0 0-25 51 0z m52 0l-26 0 0 128 26 0z m51 0l-26 0 0 128 51 0 0-26-25 0 0-25 25 0 0-26-25 0z m25 77l0 25 26 0 0-25z m-153-26l-26 0 0 26 26 0z m25 26l-25 0 0 25-51 0 0 26 76 0z"/>
<glyph glyph-name="x-light" unicode="&#57;" d="M512 480l-32 32-224-224-224 224-32-32 224-224-224-224 32-32 224 224 224-224 32 32-224 224z"/>
<glyph glyph-name="x-bold" unicode="&#58;" d="M426 498l-172-171-171 171c-19 19-50 19-69 0-19-19-19-50 0-69l172-171-172-171c-19-20-19-50 0-69 19-19 50-19 69 0l172 171 171-171c19-19 49-19 68 0 19 19 19 49 0 68l-171 172 171 171c19 19 19 50 0 69-19 19-49 19-68 0z"/>
<glyph glyph-name="waist" unicode="&#59;" d="M237 203c0 10 9 17 19 17 10 0 19-7 19-17 0-10-9-18-19-18-10 0-19 8-19 18z m186 228c4 4 4 11-1 14-4 4-11 4-16 0-11-13-107-126-20-256l1-2c2-3 4-7 7-10-42-17-90-26-138-26-48 0-96 9-138 26 3 4 5 7 8 11l0 1c88 130-9 243-21 256-4 4-11 4-15 0-5-3-5-10-1-14 4-5 101-109 18-231-17-26-48-73-43-127 1-5 5-9 11-9l1 0c3 0 6 1 7 3 2 2 3 5 3 8-3 26 4 53 21 83 45-18 97-28 149-28 52 0 104 10 149 28 17-30 24-57 21-83 0-3 1-5 3-8 1-2 4-3 7-3l1 0c6 0 10 4 11 9 5 54-26 101-44 127-82 122 15 226 19 231z m81-119l-83 0 32 30c3 3 3 8 0 11-3 2-8 2-11 0l-50-49 50-48c2-1 4-2 6-2 2 0 4 1 5 2 3 3 3 8 0 11l-32 30 83 0c5 0 8 3 8 7 0 4-3 8-8 8z m-434-56l44 43 6 5-50 49c-3 2-8 2-11 0-3-3-3-8 0-11l31-30-82 0c-5 0-8-4-8-8 0-4 3-7 8-7l82 0-31-30c-3-3-3-8 0-11 1-1 3-2 5-2 2 0 4 1 6 2z"/>
<glyph glyph-name="profession" unicode="&#60;" d="M85 268l122 0 0-24-122 0z m0 49l171 0 0 24-171 0z m415 156l0-306c0-22-18-39-41-39l-32 0 0-128-61 60-62-60 0 128-251 0c-23 0-41 17-41 39l0 306c0 21 18 39 41 39l406 0c23 0 41-18 41-39z m-77-241c0 31-26 56-57 56-32 0-57-25-57-56 0-32 25-57 57-57 31 0 57 25 57 57z m-21-175l0 98c-11-6-23-9-36-9-14 0-26 4-38 9l1-98 37 36z m77 416c0 11-8 19-20 19l-406 0c-12 0-20-10-20-19l0-306c0-12 8-20 20-20l251 0 0 26c-14 15-24 36-24 59 0 47 39 85 86 85 47 0 85-38 85-85 0-23-9-44-24-60l0-25 32 0c12 0 20 10 20 20z m-394-83l342 0 0 25-342 0z"/>
<glyph glyph-name="public" unicode="&#61;" d="M437 437c48-48 75-113 75-181 0-68-27-133-75-181-48-48-113-75-181-75-68 0-133 27-181 75-48 48-75 113-75 181 0 68 27 133 75 181 48 48 113 75 181 75 68 0 133-27 181-75z m-23-339c32 31 53 70 62 113-7-10-14-13-18 9-4 36-37 13-58 26-22-15-71 29-63-21 13-22 70 30 42-17-19-33-67-105-60-143 0-55-57-12-76 7-13 36-5 100-39 118-37 1-70 5-84 47-9 29 9 74 41 81 47 29 64-35 108-36 14 14 51 19 54 35-29 5 37 24-3 35-22-2-35-22-24-39-42-10-43 61-84 38-1-35-66-11-22-4 15 7-25 26-4 22 11 1 46 13 37 21 19 12 36-29 55 1 14 23-6 28-23 16-10 11 17 35 41 45 8 3 15 5 21 5 12-14 34-17 36 1-30 14-63 22-97 22-49 0-95-15-134-44 11-5 17-11 7-18-8-23-40-54-67-50-14-25-24-52-28-80 23-8 29-23 24-28-12-10-19-25-23-41 7-46 29-88 63-121 42-43 98-66 158-66 60 0 116 23 158 66z"/>
<glyph glyph-name="push" unicode="&#62;" d="M152 139c-4 0-8 2-11 5-30 30-47 70-47 113 0 43 17 83 47 113 6 6 16 6 22 0 6-6 6-16 0-22-24-24-38-57-38-91 0-35 14-67 38-91 6-6 6-16 0-22-3-3-7-5-11-5z m-66-65c-4 0-8 1-11 4-48 48-75 111-75 179 0 67 27 131 75 179 6 6 16 6 22 0 6-6 6-16 0-22-42-42-66-98-66-157 0-59 24-115 66-157 6-6 6-16 0-22-3-3-7-4-11-4z m273 65c-4 0-8 2-11 5-6 6-6 16 0 22 24 24 38 56 38 91 0 34-14 67-38 91-6 6-6 16 0 22 6 6 16 6 22 0 31-30 47-70 47-113 0-43-16-83-47-113-3-3-7-5-11-5z m66-65c-4 0-8 1-11 4-6 6-6 16 0 22 43 42 66 98 66 157 0 59-23 115-66 157-6 6-6 16 0 22 6 6 16 6 22 0 49-48 75-112 75-179 0-68-26-131-75-179-3-3-7-4-11-4z m-169 224c23 0 41-18 41-41 0-23-18-41-41-41-23 0-42 18-42 41 0 23 19 41 42 41m0 21c-35 0-63-28-63-62 0-34 28-62 63-62 34 0 62 28 62 62 0 34-28 62-62 62z"/>
<glyph glyph-name="send" unicode="&#63;" d="M508 508c-3 4-9 5-13 3l-488-210c-4-1-7-6-7-10 0-5 2-10 7-12l181-90 91-182c2-4 6-7 11-7 0 0 0 0 0 0 5 0 9 3 11 8l210 487c2 5 1 10-3 13m-467-219l405 175-251-252-154 77m248-248l-77 154 251 251-174-405"/>
<glyph glyph-name="settings-bold" unicode="&#64;" d="M512 217l0 79-75 12c-4 14-10 27-16 39l43 63-55 55-62-44c-12 7-25 12-39 16l-13 75-79 0-12-75c-14-3-27-9-39-16l-62 44-56-55 44-62c-7-13-13-26-17-40l-74-12 0-79 74-13c4-14 10-27 17-39l-44-62 55-55 62 43c13-7 26-12 40-16l12-75 79 0 13 75c14 4 27 9 39 16l63-43 55 55-44 62c7 12 12 25 16 39z m-256-53c-51 0-92 41-92 92 0 51 41 92 92 92 51 0 92-41 92-92 0-51-41-92-92-92z"/>
<glyph glyph-name="share" unicode="&#65;" d="M398 171c-19 0-37-7-52-18l-148 89c1 5 1 9 1 14 0 5 0 9-1 14l148 89c15-11 33-18 52-18 47 0 86 39 86 86 0 47-39 85-86 85-47 0-85-38-85-85 0-5 0-10 1-14l-148-89c-15 11-33 17-52 17-47 0-86-38-86-85 0-47 39-85 86-85 19 0 37 6 52 17l148-89c-1-4-1-9-1-14 0-47 38-85 85-85 47 0 86 38 86 85 0 47-39 86-86 86z"/>
<glyph glyph-name="tel" unicode="&#66;" d="M437 88c-6 6-67 75-74 83-8 7-21 9-35 6-8-2-35-9-47-12-7 9-25 32-51 77-27 45-37 72-41 82 8 8 28 28 34 34 10 11 14 23 11 33-3 10-33 97-36 105-5 13-24 20-41 14 0-1-77-30-83-55-18-75 31-182 76-259 45-76 114-172 189-195l0 0 0 0c25-7 89 44 90 45 7 5 11 13 13 21 1 8-1 15-5 21m-20-29c-21-17-64-43-73-40l-3-9 3 9c-69 20-135 112-178 186-43 74-91 176-75 246 3 9 47 33 73 42 5 2 9 1 11 1 4-1 6-3 6-4 3-8 32-95 35-104 1-3 0-9-7-16-7-7-37-37-37-37l-4-4 2-5c0-1 8-30 44-91 36-62 57-83 58-84l4-4 5 1c0 1 41 11 51 14 5 1 10 1 14 0 2-1 3-2 3-2 8-8 69-77 74-82 0-1 1-3 1-6-1-4-3-7-7-11"/>
<glyph glyph-name="time" unicode="&#67;" d="M256 384l32 0 0-160-128 0 0 32 96 0z m256-128c0-141-115-256-256-256-141 0-256 115-256 256 0 141 115 256 256 256 141 0 256-115 256-256z m-32 0c0 123-101 224-224 224-123 0-224-101-224-224 0-123 101-224 224-224 123 0 224 101 224 224z"/>
<glyph glyph-name="upload" unicode="&#68;" d="M512 228c0-48-41-88-91-88l-93 0c-6 0-11 5-11 10 0 5 5 10 11 10l93 0c39 0 71 30 71 68 0 38-32 68-71 68-3 0-6 2-8 4-2 2-3 5-3 7 1 6 1 10 1 14 0 61-51 110-114 110-48 0-91-29-107-72-1-3-4-5-8-6-3-1-6 0-9 3-10 9-23 14-36 14-29 0-52-22-52-49l1-2c0-5-3-9-8-10-34-9-58-39-58-73 0-42 36-76 79-76l85 0c6 0 11-5 11-10 0-5-5-10-11-10l-85 0c-55 0-99 43-99 96 0 40 26 76 65 89 3 36 34 65 72 65 14 0 28-4 39-11 23 43 70 72 121 72 74 0 135-58 135-130 0-2-1-4-1-6 46-5 81-42 81-87m-198-2l-58 57-58-57c-4-4-4-10 0-14 4-4 10-4 14 0l34 33 0-174c0-6 4-10 10-10 6 0 10 4 10 10l0 174 34-33c4-4 10-4 14 0 4 4 4 10 0 14"/>
<glyph glyph-name="pin-bold" unicode="&#69;" d="M250 512c0 0 0 0 0 0-1 0-1 0-1 0-102 0-185-82-185-184 0-58 59-147 59-147l127-163 126 163c0 0 59 89 59 147 0 102-83 184-185 184z m0-285c-59 0-106 47-106 106 0 58 47 106 106 106 58 0 105-48 105-106 0-59-47-106-105-106z"/>
<glyph glyph-name="pie" unicode="&#70;" d="M256 0c83 0 156 39 203 100l-203 156 0 256c-141 0-256-115-256-256 0-141 115-256 256-256z m-32 478l0-222c0-10 5-19 12-25l176-136c-42-40-97-63-156-63-124 0-224 100-224 224 0 113 84 206 192 222z m76 30l0-229 183-141c18 35 29 75 29 118 0 126-92 231-212 252z"/>
<glyph glyph-name="notification-bold" unicode="&#71;" d="M462 170c-25 17-66 45-66 158 0 64-39 113-100 128 2 5 3 10 3 15 0 23-19 41-43 41-24 0-43-18-43-41 0-5 1-10 3-15-61-15-100-64-100-128 0-113-41-141-65-158-11-7-21-14-21-27 0-37 50-56 166-60 0 1 21-3 121 0 115 4 165 23 165 60 0 13-10 20-20 27z m-266-109c-2 0-3 0-5 0 1-34 30-61 65-61 35 0 64 27 65 61-2 0-3 0-4 0-100-3-121 1-121 0z"/>
<glyph glyph-name="non-parameter" unicode="&#72;" d="M384 259l0 59-56 9c-3 10-7 20-12 29l32 47-41 42-47-33c-9 5-19 9-29 12l-10 56-59 0-9-56c-10-3-20-7-29-12l-47 33-41-42 32-46c-5-10-9-19-12-30l-56-9 0-59 56-10c3-10 7-20 12-30l-33-46 42-41 46 32c10-5 20-9 30-12l9-56 59 0 10 56c10 3 20 7 29 12l47-32 42 41-33 47c5 9 9 19 12 29z m-192-40c-38 0-69 31-69 69 0 38 31 69 69 69 38 0 69-31 69-69 0-38-31-69-69-69z m320-122l0 24-23 3c-1 5-2 8-4 12l13 19-17 17-18-14c-4 2-8 4-12 5l-4 23-24 0-3-23c-5-1-8-3-12-5l-19 14-16-17 13-19c-2-3-4-7-5-12l-23-3 0-24 23-4c1-4 2-8 5-12l-14-18 17-17 19 13c4-2 7-3 12-5l3-22 24 0 4 22c4 2 8 3 12 5l18-13 17 17-13 18c2 4 3 8 4 12z m-77-16c-15 0-27 13-27 28 0 15 12 27 27 27 16 0 28-12 28-27 0-15-12-28-28-28z"/>
<glyph glyph-name="menu-arrow" unicode="&#73;" d="M402 384l-146-137-146 137-110 0 256-239 256 239z"/>
<glyph glyph-name="calories" unicode="&#74;" d="M378 236c0 4 3 11 8 20 12 22 32 60 32 132 0 66-54 124-81 124-20 0-30-13-30-39l0-432c0-25 17-41 45-41 28 0 46 16 46 41 0 57-7 99-13 132-4 23-7 43-7 63m-26-216c-17 0-25 7-25 21l0 432c0 19 5 19 10 19 12 0 61-46 61-104 0-67-18-100-30-123-6-11-11-20-11-29 0-21 4-42 8-66 6-33 13-74 13-129 0-14-9-21-26-21m-96 360c0 49-17 109-19 123-1 5-5 9-10 9l-52 0 0-20 10 0 0-134c0-5 5-10 10-10 6 0 10 5 10 10l0 134 13 0c6-43 18-78 18-112 0-31-20-67-38-86-2-2-3-5-3-8l10-245c0-20-27-21-30-21l0-20c30 0 51 16 51 41l-10 242c12 14 40 55 40 97z m-122-97l-10-242c0-25 21-41 51-41l0 20c-3 0-30 1-30 21l10 245c0 3-1 6-3 8-18 19-38 55-38 86 0 34 12 69 18 112l13 0 0-134c0-5 4-10 10-10 5 0 10 5 10 10l0 134 10 0 0 20-52 0c-5 0-9-4-10-9-2-14-19-74-19-123 0-42 28-83 40-97z"/>
<glyph glyph-name="calories-burned" unicode="&#75;" d="M221 492c0 0 91-30 128-174 22 20 20 61 9 86 32-25 219-240-29-384 46 93 12 219-69 277 5-25-2-90-37-131 8 42-13 69-13 69 0 0-6-38-32-76-24-36-40-73-9-139-98 57-124 110-109 183 11 54 51 97 54 151 16-28 17-49 19-78 48 60 98 141 88 216m0 20c-5 0-10-2-14-5-5-4-8-11-7-18 7-45-11-98-53-160-3 11-8 22-15 35-3 7-10 11-18 11-1 0-3-1-4-1-9-2-15-9-16-19-2-25-13-49-26-75-11-23-23-46-28-73-17-85 18-146 118-204 4-2 7-3 11-3 5 0 10 2 14 5 6 6 8 16 4 24-27 58-12 88 8 118 3 4 6 9 8 13 2-5 5-10 11-12 2-2 5-2 9-2 5 0 11 2 15 7 25 28 37 66 42 98 50-60 65-152 30-221-4-8-2-18 5-24 4-4 9-6 14-6 3 0 7 1 10 3 86 50 132 114 137 189 6 108-77 206-106 228-3 3-8 4-12 4-5 0-9-1-13-4-4-4-7-9-7-15-46 84-108 105-111 106-2 1-4 1-6 1z"/>
<glyph glyph-name="challenges" unicode="&#76;" d="M410 441c1 15 0 25 0 25l-153 0-2 0-153 0c0 0-1-10 0-25l-102 0 0-17c0-4 1-93 56-142 24-21 52-31 87-31 5 0 10 0 16 1 19-27 41-45 67-54l0-73-75 0 0-46-24 0 0-26 258 0 0 26-25 0 0 46-74 0 0 73c26 9 48 27 67 54 6-1 11-1 16-1 34 0 63 10 87 31 55 49 56 138 56 142l0 17z m-331-134c-32 27-42 75-44 100l68 0c3-31 10-70 26-104 3-7 6-13 9-19-24 1-44 9-59 23z m354 0c-16-14-35-22-59-23 3 6 6 12 9 19 16 34 23 73 25 104l69 0c-3-25-12-73-44-100z"/>
<glyph glyph-name="check-ellipse" unicode="&#77;" d="M256 512c-141 0-256-115-256-256 0-141 115-256 256-256 141 0 256 115 256 256 0 141-115 256-256 256m135-177l-138-202c-4-6-10-10-17-10-6 0-13 3-18 8l-80 80c-6 6-6 15 0 20l20 20c5 6 14 6 20 0l52-52 114 168c4 6 13 8 20 4l23-16c6-5 8-13 4-20"/>
<glyph glyph-name="city" unicode="&#78;" d="M256 512c-94 0-171-78-171-174 0-38 23-97 70-184 33-60 65-110 67-112l23-36c3-4 7-6 11-6 4 0 8 2 11 6l23 36c2 2 34 52 67 112 47 87 70 146 70 184 0 96-77 174-171 174z m78-345c-32-59-64-109-65-111l-13-19-13 19c-1 2-33 52-65 111-45 81-67 138-67 171 0 82 65 148 145 148 80 0 145-66 145-148 0-33-22-90-67-171z m-78 269c-52 0-95-44-95-97 0-53 43-96 95-96 52 0 95 43 95 96 0 53-43 97-95 97z m0-167c-38 0-69 32-69 70 0 39 31 71 69 71 38 0 69-32 69-71 0-38-31-70-69-70z"/>
<glyph glyph-name="comment" unicode="&#80;" d="M512 283c0-119-115-214-256-214-11 0-22 0-32 2l-4-2-110-54 0 92c-67 39-110 103-110 176 0 118 115 214 256 214 141 0 256-96 256-214z"/>
<glyph glyph-name="comment-light" unicode="&#81;" d="M256 477c128 0 231-85 231-190 0-105-103-189-231-189-10 0-20 0-29 1l-4-2-99-47 0 82c-60 34-99 91-99 155 0 105 103 190 231 190m0 24c-141 0-256-96-256-214 0-66 37-128 99-169l0-107 36 17 96 47c8-1 17-2 25-2 141 0 256 96 256 214 0 118-115 214-256 214z"/>
<glyph glyph-name="like" unicode="&#82;" d="M384 463c-71 0-128-57-128-127 0 70-57 127-128 127-71 0-128-57-128-127 0-41 20-78 51-101l0 0 205-187 205 187 0 0c31 23 51 60 51 101 0 70-57 127-128 127"/>
<glyph glyph-name="leader" unicode="&#83;" d="M510 275c-15 38-45 58-88 58 0 0-28 0-51 0 9 19 18 48 18 82 0 9 0 19-2 29-7 39-34 61-73 56-15-1-20-16-33-51-11-29-25-69-46-101-15-24-43-42-66-54l0 3-169 0 0-251 169 0 0 14c27 1 42 0 46-1l30-17 23-14c22-12 118-13 159-7 53 8 66 51 67 53 4 14 40 143 16 201z m-48-192c-1-1-8-25-40-29-44-7-126-3-139 3 0 0-20 13-20 13l-38 21c-9 3-29 3-56 2l0 165c28 11 70 35 94 72 23 35 38 77 49 108 0 0 10 24 12 30 17-1 27-10 30-30 1-8 2-15 2-23 0-50-26-89-26-90l-17-26 109 0c29 0 47-11 58-36 16-40-8-144-18-180z"/>
<glyph glyph-name="invite-kin" unicode="&#84;" d="M278 244c-4 1-7 2-8 3 0 3 2 6 5 10 29 23 47 62 47 104 0 68-48 124-106 124-58 0-106-56-106-124 0-42 18-81 47-104 3-3 5-7 6-11-4-1-11-3-23-6-16-4-34-7-42-8-25-2-60-19-73-47l-20-40c-7-14-7-31 0-42 9-14 23-23 37-23l218 0c-11 21-17 43-17 68 0 37 13 70 35 96z m113 25c-67 0-121-54-121-121 0-67 54-121 121-121 67 0 121 54 121 121 0 67-54 121-121 121z m68-134l-54 0 0-54-27 0 0 54-54 0 0 26 54 0 0 54 27 0 0-54 54 0z"/>
<glyph glyph-name="create-kin" unicode="&#85;" d="M260 62c-15-3-31-5-47-5-118 0-213 95-213 213 0 118 95 214 213 214 105 0 192-76 210-176-12 3-25 5-39 5-7 0-13-1-20-2-18 67-79 116-151 116-86 0-156-71-156-157 0-86 70-156 156-156 7 0 14 0 20 1 6-19 15-37 27-53z m252 94c0-70-57-128-128-128-71 0-128 58-128 128 0 71 57 128 128 128 71 0 128-57 128-128z m-57 15l-57 0 0 57-28 0 0-57-57 0 0-29 57 0 0-57 28 0 0 57 57 0z"/>
<glyph glyph-name="edit" unicode="&#86;" d="M487 473c-32 31-85 31-118 0l-14-13 1-1-315-296c-3-2-5-5-6-8l-34-115c-2-6 0-13 5-18 4-4 9-6 14-6 2 0 4 0 6 1l122 30c3 1 7 3 9 5l322 300c2 2 4 5 5 7l3 3c33 31 33 80 0 111m-355-390l-59 55 0 2 312 292 60-57-313-292"/>
<glyph glyph-name="loser" unicode="&#87;" d="M504 239c-15-38-45-58-87-58 0 0-28 0-51 0 9-20 19-49 19-83 0-10-1-20-3-30-7-40-33-62-72-57-15 2-20 16-32 52-11 29-25 70-46 102-15 24-42 43-65 55l0-3-167 0 0 255 167 0 0-14c27-2 42-1 45 0l30 18 22 14c22 12 117 13 158 7 52-8 65-52 66-54 4-14 40-145 16-204z m-48 195c0 1-8 25-39 30-44 6-125 2-137-3 0 0-20-13-20-13l-38-22c-8-3-28-3-55-2l0-168c27-11 69-35 93-72 23-36 38-79 49-110 0 0 9-24 11-30 17 0 26 9 30 30 1 8 2 16 2 23 0 51-26 91-26 91l-17 27 108 0c29 0 46 11 57 37 16 41-8 145-18 182z"/>
<glyph glyph-name="cup" unicode="&#88;" d="M409 437c1 15 0 25 0 25l-153 0-1 0-153 0c0 0-1-10-1-25l-101 0 0-17c0-4 1-94 56-143 23-21 52-31 86-31 5 0 11 0 16 1 20-27 42-45 67-54l0-74-74 0 0-46-24 0 0-26 257 0 0 26-24 0 0 46-74 0 0 74c25 9 47 27 67 54 5-1 10-1 15-1 35 0 63 10 87 31 55 49 56 139 56 143l0 17z m-331-135c-31 28-41 76-43 101l68 0c3-31 10-71 26-105 3-6 6-12 9-18-24 1-44 8-60 22z m354 0c-15-14-35-21-59-22 3 6 6 12 9 18 16 34 23 74 26 105l68 0c-3-25-12-73-44-101z"/>
<glyph glyph-name="progress" unicode="&#89;" d="M131 122c-5-5-9-14-9-20l0-83 48 0 0 131c0 7-3 8-8 4z m209 79c-4-5-8-14-8-20l0-162 48 0 0 210c0 7-4 8-8 4z m70 71c-4-5-8-14-8-20l0-233 45 0 0 278c0 6-4 8-9 3z m-138-141c0 0-2-2-5-4-3-3-5-10-5-17l0-91 48 0 0 139c0 7-4 8-8 4z m-72 25c-4 4-8 3-8-3l0-134 48 0 0 85c0 7-3 15-8 20l-7 7z m-130-95l-15-16c-4-4-8-12-8-17l0-9 53 0 0 61c0 6-3 8-8 3z m434 238c5-5 8-3 8 3l0 166c0 11-11 22-23 22l-162 0c-6 0-8-4-4-8l58-59-23-24-110-111-58 59c-4 5-11 5-16 0l-161-163c-18-18-17-47 0-65l1-1c18-19 47-19 65 0l103 104 58-59c5-4 12-4 16 0l191 193z"/>
<glyph glyph-name="multiple25" unicode="&#90;" d="M309 396c24-15 41-40 44-69 10-4 20-7 32-7 41 0 75 34 75 75 0 42-34 75-75 75-42 0-75-33-76-74z m-49-154c42 0 75 34 75 76 0 41-33 75-75 75-41 0-75-34-75-75 0-42 34-76 75-76z m32-5l-64 0c-53 0-96-43-96-96l0-78 0-1 6-2c50-16 94-21 130-21 71 0 112 20 115 21l5 3 0 0 0 78c0 53-43 96-96 96z m125 78l-64 0c0-25-11-48-28-65 47-14 81-58 81-109l0-24c63 2 99 20 101 21l5 2 1 0 0 79c0 53-43 96-96 96z m-289 5c15 0 29 4 40 12 4 24 17 45 35 59 0 1 0 3 0 4 0 42-33 75-75 75-41 0-75-33-75-75 0-41 34-75 75-75z m68-70c-17 17-28 39-29 64-2 1-4 1-7 1l-64 0c-53 0-96-43-96-96l0-79 0-1 6-1c40-13 77-19 108-21l0 24c0 51 35 95 82 109z"/>
<glyph glyph-name="emblem" unicode="&#91;" d="M343 148c0 0 0 0-1 0l-21 1-16-14c-5-5-12-7-19-7-3 0-7 0-10 2l-20 8-20-8c-3-2-7-2-10-2-7 0-13 2-18 7l-16 14-22-1c0 0-1 0-1 0-10 0-19 6-24 15l-10 19-1 0 0-168c0-10 11-17 20-12l96 48c4 2 8 2 12 0l96-49c9-4 20 2 20 13l0 168-1 0-10-19c-4-9-14-15-24-15z m99 171c3 5 3 10 0 15l-12 18c-2 3-2 7-1 10l4 21c1 6-1 11-5 14l-17 13c-3 2-4 6-5 9l-3 22c-1 5-4 9-9 11l-21 6c-3 1-6 4-8 7l-10 19c-2 4-7 7-12 7 0 0 0 0 0 0l-22-1c0 0 0 0 0 0-4 0-7 2-9 4l-17 14c-2 3-5 4-9 4-1 0-3 0-5-1l-20-8c-1-1-3-1-5-1-2 0-3 0-5 1l-20 8c-2 1-3 1-5 1-3 0-7-1-9-4l-16-14c-3-2-6-4-9-4-1 0-1 0-1 0l-21 1c-1 0-1 0-1 0-5 0-10-3-12-7l-10-19c-2-3-5-6-8-7l-20-6c-5-2-9-6-10-11l-3-22c0-3-2-7-5-9l-17-13c-4-3-6-8-5-14l4-21c1-3 1-7-1-10l-12-18c-3-5-3-10 0-15l12-18c2-3 2-7 1-10l-4-21c-1-5 1-11 5-14l17-13c3-2 5-5 5-9l3-21c1-5 4-10 9-11l16-5 5-2c3-1 6-3 8-7l10-19c2-4 7-7 12-7 0 0 0 0 0 0l22 1c0 0 0 0 0 0 4 0 7-1 10-4l16-14c2-2 5-4 9-4 1 0 3 1 5 1l20 8c1 1 3 2 5 2 2 0 3-1 5-2l20-8c2 0 3-1 5-1 4 0 7 1 9 4l16 14c3 3 6 4 9 4 1 0 1 0 1 0l22-1c0 0 0 0 0 0 5 0 10 3 12 7l10 19c2 4 5 6 8 7l5 2 16 5c5 1 8 6 9 11l3 21c0 4 2 7 5 9l17 13c4 3 6 9 5 14l-5 21c0 4 0 7 2 10z m-54-48c-3-7-6-13-10-19-6-9-13-18-21-26-13-14-28-24-45-31-18-8-37-11-56-11-19 0-38 3-56 11-17 7-32 17-45 31-8 8-15 17-21 26-4 6-7 12-10 19-7 18-11 36-11 56 0 19 4 38 11 55 8 17 18 33 31 46 13 13 28 23 45 30 18 8 37 12 56 12 19 0 38-4 56-12 17-7 32-17 45-30 13-13 24-29 31-46 7-17 11-36 11-55 0-20-4-38-11-56z m-132 182c-70 0-127-56-127-126 0-12 2-23 5-34 15-54 64-93 122-93 58 0 107 39 122 93 3 11 5 22 5 34 0 70-57 126-127 126z m56-185c3-12-9-20-20-15l-36 21-36-21c-11-5-23 4-20 15l8 41-28 26-3 3c-9 7-4 22 7 23l42 5 18 39c4 10 19 10 24 0l18-39 42-5c11-1 16-16 7-23l-3-3-28-26z"/>
<glyph glyph-name="winners" unicode="&#92;" d="M19 101l474 0c10 0 19 8 19 19l0 137c0 11-9 19-19 19l-142 0 0 117c0 10-9 19-19 19l-152 0c-11 0-19-9-19-19l0-84-142 0c-11 0-19-9-19-19l0-170c0-11 8-19 19-19z m375 64l9 1c3 1 5-1 6-4 1-3 2-5 4-7 3-3 6-4 10-4 5 0 8 2 11 5 3 3 5 8 5 13 0 5-2 9-5 12-2 4-6 5-10 5-1 0-1 0-2 0-4 0-7 3-6 6l0 5c1 2 3 4 5 5 4 0 7 1 9 3 3 3 4 6 4 10 0 4-1 7-3 9-2 2-5 3-9 3-3 0-6-1-9-3-1-2-3-4-3-7-1-2-4-4-6-3l-9 1c-3 1-5 4-4 7 1 4 3 7 5 10 2 4 6 7 11 9 5 2 10 3 16 3 10 0 18-3 24-10 5-5 8-11 8-18 0-9-5-17-16-22 7-1 12-4 15-9 4-5 6-10 6-17 0-9-4-17-11-24-6-7-15-10-25-10-10 0-18 3-25 8-5 5-8 10-10 16-1 3 2 7 5 7z m-166 180c0 2 2 4 4 5 4 2 9 5 14 9 5 4 9 8 12 14 0 2 2 3 5 3l7 0c3 0 6-3 6-6l0-97c0-3-3-6-6-6l-10 0c-3 0-5 3-5 6l0 72c-6-5-12-9-19-12-4-2-8 1-8 5l0 7z m-176-170c1 5 3 10 6 14 4 7 11 15 23 26 9 9 15 15 17 18 3 4 4 8 4 12 0 5-1 9-3 11-3 3-6 4-11 4-4 0-7-2-10-4-2-2-3-5-4-8 0-3-3-5-6-5l-9 1c-3 1-6 4-5 7 2 8 5 14 11 18 6 5 14 8 24 8 11 0 19-3 25-9 6-6 9-13 9-21 0-5-1-10-2-14-2-5-5-9-9-14-2-3-7-8-13-14-7-6-11-10-13-12-1-2-3-4-4-5l36 0c3 0 5-3 5-6l0-8c0-3-2-6-5-6l-61 0c-3 0-6 4-5 7z"/>
<glyph glyph-name="pie2" unicode="&#93;" d="M179 155l-65-112c-68 46-114 124-114 213 0 136 106 247 240 256l0-129c-63-8-112-62-112-127 0-41 20-78 51-101z m179 178l111 65c-43 65-115 108-197 114l0-129c35-5 65-23 86-50z m127 37l-111-64c6-15 10-32 10-50 0-70-57-128-128-128-18 0-34 4-50 10l-64-111c35-17 73-27 114-27 141 0 256 115 256 256 0 41-10 80-27 114z"/>
<glyph glyph-name="arr" unicode="&#94;" d="M256 512c-141 0-256-115-256-256 0-141 115-256 256-256 141 0 256 115 256 256 0 141-115 256-256 256z m0-494c-131 0-238 107-238 238 0 131 107 238 238 238 131 0 238-107 238-238 0-131-107-238-238-238z m-4 350l98-96-12-13-78 77 0-201-17 0 0 201-78-77-12 13z"/>
<glyph glyph-name="brightlamp" unicode="&#95;" d="M256 387c-70 0-126-54-126-120 0-80 55-100 55-146 0-11 9-22 22-30-3-2-4-4-4-7 0-3 2-7 7-9-4-3-7-6-7-10 0-3 3-6 7-9-4-3-7-6-7-10 0-4 4-8 10-11-2-2-4-5-4-8 0-8 13-15 31-17 3-6 9-10 16-10 8 0 14 4 17 10 18 2 31 9 31 17 0 3-2 6-4 8 6 3 11 7 11 11 0 4-3 7-8 10 5 2 8 6 8 9 0 4-3 7-8 10 5 3 7 6 7 9 0 3-1 5-4 8 13 7 21 18 21 29 0 46 55 66 55 146 0 66-56 120-126 120z m66-195c-13-18-27-39-28-68-4-5-20-13-38-13-18 0-34 8-38 13-1 29-15 50-28 68-14 20-27 40-27 75 0 48 42 87 93 87 51 0 93-39 93-87 0-35-13-55-27-75z m-66 238c9 0 16 9 16 21l0 39c0 12-7 22-16 22-9 0-16-10-16-22l0-39c0-12 7-21 16-21z m-84-23c7 4 9 17 3 27l-19 34c-6 10-18 15-26 10-8-4-9-16-3-27l19-33c6-11 18-16 26-11z m-73-37l-34 20c-10 6-22 4-27-4-4-8 1-19 11-25l34-19c10-6 22-5 27 3 4 8-1 19-11 25z m364-210l-34 20c-10 6-22 4-27-4-4-8 1-19 11-25l34-19c10-6 22-5 27 3 4 8-1 19-11 25z m-376 101c0 9-10 16-22 16l-39 0c-12 0-21-7-21-16 0-9 9-17 21-17l39 0c12 0 22 8 22 17z m399 16l-39 0c-12 0-22-7-22-16 0-9 10-17 22-17l39 0c12 0 21 8 21 17 0 9-9 16-21 16z m-403-97l-34-20c-10-6-15-17-11-25 5-8 17-9 27-3l34 19c10 6 15 17 11 25-5 8-17 10-27 4z m346 162l34 19c10 6 15 17 11 25-5 8-17 10-27 4l-34-20c-10-6-15-17-11-25 5-8 17-9 27-3z m-47 136c-8 5-20 0-26-10l-19-34c-6-10-4-22 3-27 8-5 20 0 26 11l19 33c6 11 5 23-3 27z"/>
<glyph glyph-name="biceps" unicode="&#96;" d="M513 296c0-81-81-111-81-111 0 0-43-143-169-143-44 0-68 7-85 7-17 0-34-9-43-9-10 0-72 45-96 103-34 89-36 155-38 192-4 49 4 79 28 102 15 13 34 30 55 32 24 2 32-8 49-21 15-11 22-15 24-28 0-4 2-15-7-15 3-6-4-19-15-17 3-9-10-15-17-15 3-6-10-8-15-8-4 0-8 0-12 2 0 0-11 4-7 10-6-12-23-6-17-21 4-11 17-51 47-79 36-32 47-62 58-85 4 25 23 113 134 96-21 49 13 117 111 117 68 0 96-55 96-109z"/>
<glyph glyph-name="kins" unicode="&#97;" d="M393 512c-66 0-120-54-120-119 0-66 54-120 120-120 65 0 119 54 119 120 0 65-54 119-119 119z m-274-273c-65 0-119-54-119-120 0-65 54-119 119-119 66 0 120 54 120 119 0 66-54 120-120 120z m0-205c-47 0-85 38-85 85 0 48 38 86 85 86 48 0 86-38 86-86 0-47-38-85-86-85z m0 478c-65 0-119-54-119-119 0-66 54-120 119-120 66 0 120 54 120 120 0 65-54 119-120 119z m0-205c-47 0-85 38-85 86 0 47 38 85 85 85 48 0 86-38 86-85 0-48-38-86-86-86z m274-68c-66 0-120-54-120-120 0-65 54-119 120-119 65 0 119 54 119 119 0 66-54 120-119 120z m0-205c-48 0-86 38-86 85 0 48 38 86 86 86 47 0 85-38 85-86 0-47-38-85-85-85z"/>
<glyph glyph-name="plus" unicode="&#98;" d="M256 512c-141 0-256-115-256-256 0-141 115-256 256-256 141 0 256 115 256 256 0 141-115 256-256 256z m132-282l-106 0 0-106-52 0 0 106-106 0 0 53 106 0 0 105 52 0 0-105 106 0z"/>
<glyph glyph-name="message" unicode="&#99;" d="M0 431l0-350 512 0 0 350-512 0m492-19l0-25-202-166c-14-12-29-14-34-14-6 0-20 2-34 14-15 11-180 148-202 166l0 25 472 0m0-50l0-213-135 101 135 112m-337-112l-135-101 0 213c29-24 90-74 135-112m-135-150l0 24 151 113c19-16 34-28 37-31 20-16 40-18 48-18 8 0 28 2 48 18l37 31 151-113 0-24-472 0"/>
<glyph glyph-name="goal" unicode="&#100;" d="M430 281l-50 95 50 95c3 5 3 12 0 17-3 5-8 8-13 8l-307 0c-1 9-7 16-15 16-8 0-15-7-15-16l0-480c0-9 7-16 15-16 8 0 15 7 15 16l0 239 307 0c8 0 15 7 15 17 0 3-1 6-2 9z"/>
<glyph glyph-name="avatar-arr" unicode="&#101;" d="M256 489c128 0 233-105 233-233 0-128-105-233-233-233-128 0-233 105-233 233 0 128 105 233 233 233m0 23c-141 0-256-115-256-256 0-141 115-256 256-256 141 0 256 115 256 256 0 141-115 256-256 256z m73-222l-73-68-73 68-55 0 128-119 128 119z"/>
<glyph glyph-name="search" unicode="&#102;" d="M520 23l-137 136c32 39 49 87 49 137 0 119-97 216-216 216-119 0-216-97-216-216 0-119 97-216 216-216 50 0 97 17 136 48l136-136c4-5 10-7 16-7 6 0 12 2 16 7 4 4 6 9 6 15 0 6-2 12-6 16z m-304 445c95 0 172-77 172-172 0-46-18-89-50-122-33-32-76-50-122-50-95 0-172 77-172 172 0 95 77 172 172 172z"/>
<glyph glyph-name="email-1" unicode="&#103;" d="M256 183l-63 55-181-155c6-6 15-10 25-10l438 0c10 0 19 4 25 10l-181 155z m244 246c-6 6-15 10-25 10l-438 0c-10 0-19-4-25-10l244-210z m-500-22l0-304 177 150z m335-154l177-150 0 304z"/>
<glyph glyph-name="set-2" unicode="&#104;" d="M399 512c-34 0-105 1-143-37l-6-6 0-1c-41-40-45-101-16-147l-211-193 0 0c-10-9-19-25-22-44-3-19 2-42 22-62 19-20 42-25 62-22 19 3 34 13 44 22l0 0 0 0c0 0 48 55 97 110 25 27 49 54 68 74 9 10 18 19 23 24 2 2 3 3 4 4 45-30 107-26 148 15l7 7c18 18 27 45 31 71 4 27 4 52 5 70 0 4 0 7-4 11-3 4-9 5-12 4-6-1-9-4-9-4l0 0c0 0-59-60-67-68 0 0 0 0-1 0-2 0-4 0-8-1-7 0-17 1-27 2-9 1-19 2-26 4-4 0-7 1-9 2-1 0-2 0-2 1 0 0 0 0-1 1 0 2-1 5-2 9-1 7-2 16-3 26-1 9-1 19-1 26 0 3 0 6 1 8 0 1 0 2 0 2 9 9 68 67 68 67l0 0 0 1c0 0 3 2 5 8 0 3 0 8-4 12-3 3-7 4-11 4m-14-21c-12-12-52-52-58-58-4-4-5-8-5-11-1-3-1-7-2-12 0-8 1-18 1-28 1-10 3-20 4-28 1-4 2-8 3-11 1-4 2-6 5-10 4-3 6-4 10-5 3-1 7-2 11-3 8-1 19-3 29-4 10 0 20-1 28-1 4 0 8 0 11 1 3 0 6-1 11 4 5 5 45 46 58 59 0-16 0-34-3-54-4-24-13-47-26-61l-7-6c-40-40-101-39-140 0l-51 51c-39 39-40 101 0 140l6 8c26 25 80 29 115 29m-140-185c2-2 3-4 5-5l51-52c2-1 3-2 5-4-1 0-1-1-2-2-6-6-14-14-23-24-19-20-44-48-69-75-48-54-96-109-97-109l0 0c-6-7-19-14-33-16-15-3-30 0-46 16-16 16-19 32-17 46 2 14 10 27 16 34l1 0 209 191"/>
<glyph glyph-name="set" unicode="&#105;" d="M124 258l41-7 0-11c0-2 1-5 3-7l17-16-81-88-20-1c-2 0-4-1-6-3l-30-31c-21-21-28-47-16-61 5-6 12-8 20-8 13 0 28 5 42 17l34 27c2 1 3 3 3 5l6 19 92 81 164-158c11-11 25-16 39-16 15 0 30 6 41 17l21 22c11 11 17 25 16 41 0 15-6 30-17 40l-135 131 149 158c2 2 3 5 3 7-1 3-2 5-4 7l-78 72c-3 4-9 4-13 0l-153-156c-1-1-1-1-1-2l-6 0-5 47c0 70-56 126-125 126-9 0-19-1-28-3-7-2-12-7-14-14-4-12 4-29 19-45l43-43-35-36-45 46c-12 13-26 20-37 20-12 0-21-7-24-18-2-11-4-22-4-33 0-69 56-126 124-126z m-1-152c-2-2-3-3-3-5l-6-19-32-25c-17-14-33-15-36-11-3 3 0 19 15 34l28 29 20 1c3 0 5 1 6 3l83 91 17-16z m357 0c7-7 11-16 12-27 0-10-4-19-11-26l-21-22c-15-15-39-15-55-1l-221 214 0 10 67 63 10 1z m-58 369l65-59-143-152-66 64z m-399-63c0 2 1 3 5 3 5 0 14-3 24-13l51-54c2-2 5-3 7-3l0 0c3 0 5 1 7 3l48 51c1 2 2 4 2 7 0 2-1 5-3 6l-49 50c-13 13-15 24-14 26 8 2 16 3 24 3 59 0 106-48 106-107 0 0 0-1 0-1l6-53-65-61-45 8c-1 0-2 0-2 0-59 0-106 48-106 107 0 9 1 19 4 28z m411 38c-4 4-10 4-14 0l-113-120c-4-4-4-11 0-15 2-2 5-2 7-2 3 0 6 1 8 3l112 119c4 4 4 11 0 15z"/>
<glyph glyph-name="logout" unicode="&#106;" d="M0 31l0 450c0 17 14 31 31 31l348 0c17 0 31-14 31-31l0-194-21 0 0 194c0 6-4 11-10 11l-348 0c-6 0-11-5-11-11l0-450c0-6 5-11 11-11l348 0c6 0 10 5 10 11l0 194 21 0 0-194c0-17-14-31-31-31l-348 0c-17 0-31 14-31 31m293 329c4 4 4 11 0 15-2 2-4 3-7 3-2 0-5-1-7-3l-119-119 119-119c4-4 10-4 14 0 4 4 4 11 0 15l-94 94 303 0c5 0 10 4 10 10 0 6-5 10-10 10l-303 0 94 94"/>
<glyph glyph-name="challenges-1" unicode="&#107;" d="M505 502c-5 7-13 10-21 10l-455 0c-8 0-16-3-21-10-6-6-9-14-8-22 5-55 21-126 66-152 5-2 10-3 15-3 0 0 0 0 0 0 2-91 72-166 161-173l0-123-87 0c-8 0-15-6-15-14 0-8 7-15 15-15l203 0c8 0 15 7 15 15 0 8-7 14-15 14l-87 0 0 123c89 7 159 82 161 173 0 0 0 0 0 0 5 0 10 1 14 3 46 26 62 97 67 152 0 8-2 16-8 22z m-476-19l52 0 0-129c-37 20-48 92-52 129z m374-155c0-81-66-148-147-148-80 0-146 67-146 148l0 155 293 0z m29 26l0 129 52 0c-4-37-15-109-52-129z"/>
<glyph glyph-name="rhesus" unicode="&#108;" d="M145 114c6 0 11-6 11-12 0-6-5-11-11-11-54 0-99 43-99 97 0 7 6 12 12 12 6 0 12-5 12-12 0-41 33-74 75-74z m10 349c5-9 135-199 135-275 0-79-65-143-145-143l0 0c-80 0-145 64-145 143 0 76 130 266 135 275 2 2 4 3 7 4 1 0 2 0 3 0 1 0 2 0 3 0 3-1 5-2 7-4z m111-275c0 53-80 185-121 247-41-62-122-194-122-247 0-66 55-120 122-120 67 0 121 54 121 120z m98-78l156 0 0 22-156 0z m89 245l0 67-22 0 0-67-67 0 0-22 67 0 0-67 22 0 0 67 67 0 0 22z"/>
<glyph glyph-name="competition" unicode="&#109;" d="M481 512l-31-28c0 0-45-39-90-39-21 0-37 8-58 17-22 11-49 26-88 26-111 0-174-71-179-76l-6-6 107-317 0 1 30-90 39 14-37 109c17 15 53 42 89 42 31 0 49-6 66-11 16-4 32-10 57-10 49 0 90 23 92 23l11 7z m-103-327c-9 0-16 1-23 2l-16 71c-20 7-51 18-66 18l19-73c-11 2-23 3-39 3-13 0-26-2-38-6l-26 69c-20-9-42-26-56-38l-33 99c30 24 59 35 59 35l-26 67c22 10 50 17 83 17 6 0 10-1 15-1l18-70c18 0 70-26 70-26l-15 68c17-8 34-14 58-14 9 0 19 1 28 3l4-68c0 0 22 6 50 25l0-92c-23-11-43-15-43-15l4-71c-8-2-17-3-27-3z m-146 193c11 0 17 0 17 0l24-100c0 0-18 2-36 2-19 0-46-11-46-11l-34 94c-1 0 34 15 75 15z m134-42c16 0 29 5 29 5l6-83c0 0-17-2-31-2-14 0-33 5-33 5l-18 88c0 0 24-13 47-13z"/>
<glyph glyph-name="team-battle" unicode="&#110;" d="M396 347c0 0-21 40-40 76-13 26-44 36-46 36l-62 16c-5 1-10-1-12-5 0-2-13-27-37-27-25 0-38 25-38 27-2 4-7 6-12 5l-63-17c-1 0-31-11-45-36-20-34-39-68-40-69-1-2-1-5-1-8 1-3 3-5 6-7l61-29c1 0 3-1 4-1l0-177c0-6 5-11 10-11l235 0c5 0 10 5 10 11l0 171c2 0 5 0 7 1l58 29c3 2 5 4 6 7 0 2 0 5-1 8m-164-104c-1-5-3-9-6-13-3-4-8-7-13-10-6-2-13-4-23-4-13 0-22 3-28 11-6 8-9 19-9 32l0 1 25 0c0-8 1-14 3-19 2-4 6-6 11-6 3 0 7 1 9 2 2 1 3 3 4 5 1 3 2 5 2 8 0 3 0 5 0 8 0 3 0 6-1 8 0 4-1 6-2 8-1 2-3 4-5 5-2 1-6 2-10 2l-9 0 0 18 9 0c3 0 5 1 8 2 2 1 3 3 5 5 1 2 2 4 3 7 1 3 1 6 1 9 0 6-1 11-3 13-2 4-5 5-10 5-3 0-5-1-7-2-2-2-3-4-4-5-1-2-2-4-2-7 0-3 0-5 0-9l-24 0c0 13 3 24 10 30 6 6 16 10 28 10 13 0 22-3 28-8 7-5 10-15 10-27 0-9-2-15-5-20-3-5-8-8-15-10 8-2 14-6 18-11 3-6 5-12 5-22-1-5-2-10-3-16m276-4c0 0-15 43-28 80-9 28-39 42-40 43l-38 18c7-14 12-23 12-23 4-8 5-17 2-25-3-8-8-15-16-18l-54-28 0-155c0-18-14-32-30-32l-151 0-2-15c-1-6 3-11 9-12l218-35c1 0 1 0 2 0 2 0 4 0 6 2 2 1 4 4 4 6l26 169 0-1c2-5 8-7 13-6l61 18c2 1 5 3 6 5 1 3 1 6 0 9"/>
<glyph glyph-name="gift" unicode="&#111;" d="M382 356c9 7 17 14 25 22 16 17 27 38 31 59 3 22-2 44-16 58-11 11-25 17-42 17-24 0-50-12-70-33-32-34-51-80-61-113-8 33-23 78-52 108-15 16-35 25-54 25-15 0-30-6-41-17-24-25-21-70 7-99 11-11 22-20 35-27l-106 0 0-129 31 0 0-227 373 0 0 227 32 0 0 129z m-47 97c13 14 30 23 45 23 5 0 12-2 17-7 13-13 6-44-15-65-21-23-50-38-75-48l-24 0c9 29 25 69 52 97z m-214-16c0 4 0 13 6 19 5 5 11 6 16 6 10 0 21-5 30-14 16-17 30-44 39-78 0-1 0-2 1-3-1 0-2 0-3 1-33 9-59 23-76 40-8 8-12 19-13 29z m104-405l-124 0 0 211 124 0z m0 227l-156 0 0 65 156 0 0-65z m186-227l-124 0 0 211 124 0z m31 227l-155 0 0 65 155 0z"/>
<glyph glyph-name="biceps-line" unicode="&#112;" d="M98 474c-3 0-6 0-10-1-24-3-43-21-57-35-26-25-34-58-30-107 2-33 4-99 36-186 12-30 33-56 52-75 10-9 20-17 28-22 4-3 7-5 11-7 3-2 5-3 10-3 8 0 14 3 21 5 7 2 14 3 21 3 14-1 39-8 83-8 64 0 108 38 134 74 23 32 32 60 34 67 7 2 21 5 38 16 21 14 44 41 44 84 0 27-6 56-21 79-16 24-42 40-78 40-88 0-128-57-124-101-51 4-84-14-102-37-9-12-14-25-17-36-10 18-22 39-45 60-13 13-23 28-30 42-6 14-9 24-12 30 1 0 2 0 3 1 1-1 2-2 3-2 1 0 2-1 3-1 0 0 0-1 1-1 0 0 0 0 0 0 0 0 0 0 3 0l0 0c4-1 8-2 12-2 3 0 8 1 13 3 3 1 6 3 9 6 0 0 0 1 0 1 4 1 7 3 10 5 3 3 5 6 7 10 5 2 9 4 11 8 3 3 4 7 5 11 0 1 1 1 1 1 3 3 4 6 5 9 1 6 0 10-1 14-2 7-5 13-9 18-5 5-11 9-18 15-7 4-13 11-21 15-6 4-14 6-23 7m-1-20c6-1 9-2 14-4 5-4 11-9 19-15 7-5 12-9 14-12 3-3 4-5 5-10 0 0 1-1 1-2-5-2-8-8-6-13-1 2-1-1-2-2-1-2 0-1 0-1-3 1-7 0-10-2-2-3-4-6-3-10 0 0 0 0 0 0-1-1-3-1-3-1-3 0-6-1-8-2-2-2-4-4-4-7-2-1-4-1-5-1-3 0-6 0-8 1 0 4-3 8-8 9-4 2-9 0-11-4-1-2-3-2-8-4-3-1-7-3-10-8-2-6-2-11 0-16 2-4 6-17 14-33 7-15 18-33 34-48 32-30 43-58 53-82 2-4 6-6 11-6 4 1 8 4 8 9 2 12 5 38 21 58 15 20 42 36 97 28 3 0 7 1 9 4 2 3 3 7 2 10-10 25 13 88 101 88 30 0 48-12 61-31 12-18 17-44 17-68 0-36-17-55-34-67-18-11-36-14-36-14-4-1-7-3-8-7 0 0-10-34-34-67-24-33-60-65-117-65-42 0-64 6-82 7-10 1-20-2-27-4-8-2-14-3-15-3-1 0-1 0-2 1-2 1-5 3-9 5-7 4-15 11-25 20-18 17-37 42-46 68-32 83-33 145-36 180-3 45 4 70 24 91 13 12 31 27 46 29 2 1 4 1 6 1"/>
<glyph glyph-name="dumbbells" unicode="&#113;" d="M365 321l-174-174-42 42 174 174z m-182-291c15-15 38-15 53 0l15 16-203 203-16-15c-15-15-15-38 0-53z m-105-21c15-15 38-15 53 0l15 16-119 119-16-15c-15-15-15-38 0-53z m253 471c-15 15-38 15-53 0l-15-16 203-203 16 15c15 15 15 38 0 53z m105 21c-15 15-38 15-53 0l-15-16 119-119 16 15c15 15 15 38 0 53z"/>
<glyph glyph-name="star" unicode="&#114;" d="M256 113l158-92-42 174 140 117-184 15-72 164-72-164-184-15 140-117-42-174z"/>
<glyph glyph-name="arr1" unicode="&#115;" d="M154 11l-40 41 210 210-210 210 40 40 250-250z"/>
<glyph glyph-name="arr2" unicode="&#116;" d="M364 512l40-40-210-210 210-210-40-41-250 251z"/>
<glyph glyph-name="friend-del" unicode="&#117;" d="M256 512c-141 0-256-115-256-256 0-141 115-256 256-256 141 0 256 115 256 256 0 141-115 256-256 256z m107-341l-22-22-85 84-85-84-22 22 84 85-84 85 22 22 85-84 85 84 22-22-84-85z"/>
<glyph glyph-name="load-more-arr" unicode="&#118;" d="M443 223l-29 26-143-158 0 421-40 0 0-421-143 158-29-26 192-213z"/>
<glyph glyph-name="plus-1" unicode="&#119;" d="M512 299l-213 0 0 213-86 0 0-213-213 0 0-86 213 0 0-213 86 0 0 213 213 0z"/>
<glyph glyph-name="update" unicode="&#120;" d="M456 256c0-108-90-197-199-197-109 0-199 89-199 197 0 109 90 198 199 198 56 0 109-24 147-66l4-4-80 0c-10 0-19-5-24-13-5-9-5-19 0-27 5-8 14-13 24-13l156 0 0 150c0 8-3 15-9 20-6 5-14 8-22 7l0 0c-14-2-24-13-24-27l0-35c-45 41-106 66-172 66-141 0-257-115-257-256 0-140 116-255 257-255 142 0 257 115 257 255l-58 0z"/>
<glyph glyph-name="duel-btn" unicode="&#122;" d="M34 242l35 34 54-55 255 285 135 6-6-134-286-254 55-55-34-34-76 76-111-110-55 54 111 111z"/>
<glyph glyph-name="dueling" unicode="&#79;" d="M244 160l-68-62 44-44-27-27-61 61-88-88-44 44 88 88-61 61 28 27 43-44 60 64z m241 33l-28 27-43-44-307 331-107 5 5-107 331-307-44-44 27-27 61 61 88-88 44 44-88 88z m22 212l5 107-107-5-137-148 87-95z"/>
<glyph glyph-name="hepl" unicode="&#123;" d="M256 512c-141 0-256-115-256-256 0-141 115-256 256-256 141 0 256 115 256 256 0 141-115 256-256 256z m21-395c-6-5-14-9-25-9-11 0-19 4-25 9-6 6-9 14-9 25 0 10 3 19 9 24 6 6 14 9 25 9 11 0 19-3 25-9 6-6 9-14 9-24 0-11-3-19-9-25z m64 178c-6-11-18-23-37-35-12-10-20-17-23-21-3-5-5-11-5-19l0-12-52 0 0 14c0 13 3 24 8 33 6 9 15 19 29 29 0 0 11 9 15 12 3 2 12 12 12 12 5 6 7 13 7 21 0 8-3 14-9 19-7 4-15 6-27 6-19 0-41-6-66-19l-21 43c29 16 60 24 92 24 26 0 48-6 63-19 16-13 24-30 24-51 0-15-3-27-10-37z"/>
<glyph glyph-name="history" unicode="&#124;" d="M384 380l-143 0c-11 0-21-10-21-21 0-12 10-21 21-21l143 0c11 0 21 9 21 21 0 11-10 21-21 21z m0-106l-143 0c-11 0-21-9-21-21 0-11 10-20 21-20l143 0c11 0 21 9 21 20 0 12-10 21-21 21z m0-105l-143 0c-11 0-21-9-21-21 0-11 10-21 21-21l143 0c11 0 21 10 21 21 0 12-10 21-21 21z m0 211l-143 0c-11 0-21-10-21-21 0-12 10-21 21-21l143 0c11 0 21 9 21 21 0 11-10 21-21 21z m0-106l-143 0c-11 0-21-9-21-21 0-11 10-20 21-20l143 0c11 0 21 9 21 20 0 12-10 21-21 21z m0-105l-143 0c-11 0-21-9-21-21 0-11 10-21 21-21l143 0c11 0 21 10 21 21 0 12-10 21-21 21z m0 0l-143 0c-11 0-21-9-21-21 0-11 10-21 21-21l143 0c11 0 21 10 21 21 0 12-10 21-21 21z m0 105l-143 0c-11 0-21-9-21-21 0-11 10-20 21-20l143 0c11 0 21 9 21 20 0 12-10 21-21 21z m0 106l-143 0c-11 0-21-10-21-21 0-12 10-21 21-21l143 0c11 0 21 9 21 21 0 11-10 21-21 21z m0 0l-143 0c-11 0-21-10-21-21 0-12 10-21 21-21l143 0c11 0 21 9 21 21 0 11-10 21-21 21z m0-106l-143 0c-11 0-21-9-21-21 0-11 10-20 21-20l143 0c11 0 21 9 21 20 0 12-10 21-21 21z m0-105l-143 0c-11 0-21-9-21-21 0-11 10-21 21-21l143 0c11 0 21 10 21 21 0 12-10 21-21 21z m0 0l-143 0c-11 0-21-9-21-21 0-11 10-21 21-21l143 0c11 0 21 10 21 21 0 12-10 21-21 21z m0 105l-143 0c-11 0-21-9-21-21 0-11 10-20 21-20l143 0c11 0 21 9 21 20 0 12-10 21-21 21z m0 106l-143 0c-11 0-21-10-21-21 0-12 10-21 21-21l143 0c11 0 21 9 21 21 0 11-10 21-21 21z m0 0l-143 0c-11 0-21-10-21-21 0-12 10-21 21-21l143 0c11 0 21 9 21 21 0 11-10 21-21 21z m0-106l-143 0c-11 0-21-9-21-21 0-11 10-20 21-20l143 0c11 0 21 9 21 20 0 12-10 21-21 21z m0-105l-143 0c-11 0-21-9-21-21 0-11 10-21 21-21l143 0c11 0 21 10 21 21 0 12-10 21-21 21z m0 0l-143 0c-11 0-21-9-21-21 0-11 10-21 21-21l143 0c11 0 21 10 21 21 0 12-10 21-21 21z m0 105l-143 0c-11 0-21-9-21-21 0-11 10-20 21-20l143 0c11 0 21 9 21 20 0 12-10 21-21 21z m0 106l-143 0c-11 0-21-10-21-21 0-12 10-21 21-21l143 0c11 0 21 9 21 21 0 11-10 21-21 21z m-143-42l143 0c11 0 21 9 21 21 0 11-10 21-21 21l-143 0c-11 0-21-10-21-21 0-12 10-21 21-21z m143-64l-143 0c-11 0-21-9-21-21 0-11 10-20 21-20l143 0c11 0 21 9 21 20 0 12-10 21-21 21z m0-105l-143 0c-11 0-21-9-21-21 0-11 10-21 21-21l143 0c11 0 21 10 21 21 0 12-10 21-21 21z m110 316l-357 0c-11 0-24-9-24-21l0-114-89 0c-11 0-24-9-24-20l0-217c0-46 28-82 69-88l1 0 1 0c4-2 8-3 13-3l349 0c48 0 79 36 79 91l0 351c0 13-7 21-18 21z m-381-372c0-27-15-46-35-46-21 0-36 18-36 46l0 196 71 0z m357 0c0-12 0-49-37-49l-286 0 4 11c4 10 4 22 4 36l0 332 315 0z m-229 225l143 0c11 0 21 9 21 21 0 11-10 21-21 21l-143 0c-11 0-21-10-21-21 0-12 10-21 21-21z m0-105l143 0c11 0 21 9 21 20 0 12-10 21-21 21l-143 0c-11 0-21-9-21-21 0-11 10-20 21-20z m0-106l143 0c11 0 21 10 21 21 0 12-10 21-21 21l-143 0c-11 0-21-9-21-21 0-11 10-21 21-21z m143 42l-143 0c-11 0-21-9-21-21 0-11 10-21 21-21l143 0c11 0 21 10 21 21 0 12-10 21-21 21z m0 105l-143 0c-11 0-21-9-21-21 0-11 10-20 21-20l143 0c11 0 21 9 21 20 0 12-10 21-21 21z m0 106l-143 0c-11 0-21-10-21-21 0-12 10-21 21-21l143 0c11 0 21 9 21 21 0 11-10 21-21 21z m0 0l-143 0c-11 0-21-10-21-21 0-12 10-21 21-21l143 0c11 0 21 9 21 21 0 11-10 21-21 21z m0-106l-143 0c-11 0-21-9-21-21 0-11 10-20 21-20l143 0c11 0 21 9 21 20 0 12-10 21-21 21z m0-105l-143 0c-11 0-21-9-21-21 0-11 10-21 21-21l143 0c11 0 21 10 21 21 0 12-10 21-21 21z m0 0l-143 0c-11 0-21-9-21-21 0-11 10-21 21-21l143 0c11 0 21 10 21 21 0 12-10 21-21 21z m0 105l-143 0c-11 0-21-9-21-21 0-11 10-20 21-20l143 0c11 0 21 9 21 20 0 12-10 21-21 21z m0 106l-143 0c-11 0-21-10-21-21 0-12 10-21 21-21l143 0c11 0 21 9 21 21 0 11-10 21-21 21z m0 0l-143 0c-11 0-21-10-21-21 0-12 10-21 21-21l143 0c11 0 21 9 21 21 0 11-10 21-21 21z m0-106l-143 0c-11 0-21-9-21-21 0-11 10-20 21-20l143 0c11 0 21 9 21 20 0 12-10 21-21 21z m0-105l-143 0c-11 0-21-9-21-21 0-11 10-21 21-21l143 0c11 0 21 10 21 21 0 12-10 21-21 21z m0 0l-143 0c-11 0-21-9-21-21 0-11 10-21 21-21l143 0c11 0 21 10 21 21 0 12-10 21-21 21z m0 105l-143 0c-11 0-21-9-21-21 0-11 10-20 21-20l143 0c11 0 21 9 21 20 0 12-10 21-21 21z m0 106l-143 0c-11 0-21-10-21-21 0-12 10-21 21-21l143 0c11 0 21 9 21 21 0 11-10 21-21 21z m0 0l-143 0c-11 0-21-10-21-21 0-12 10-21 21-21l143 0c11 0 21 9 21 21 0 11-10 21-21 21z m0-106l-143 0c-11 0-21-9-21-21 0-11 10-20 21-20l143 0c11 0 21 9 21 20 0 12-10 21-21 21z m0-105l-143 0c-11 0-21-9-21-21 0-11 10-21 21-21l143 0c11 0 21 10 21 21 0 12-10 21-21 21z"/>
<glyph glyph-name="start-date" unicode="&#125;" d="M226 229l28 148 27-148c3-15-7-30-22-33-15-3-30 8-33 23 0 3 0 7 0 10z m50 223l0 13 16 0c12 0 23 11 23 24 0 12-11 23-23 23l-77 0c-13 0-23-11-23-23 0-13 10-24 23-24l15 0 0-14c-110-13-196-108-196-224 0-125 100-227 222-227 122 0 222 102 222 227 0 117-89 214-202 225z m0-406l0 11c0 13-10 23-23 23-13 0-23-10-23-23l0-11c-77 12-138 74-150 152l12 0c13 0 23 11 23 24 0 13-11 23-23 23l-13 0c9 92 85 163 177 163 92 0 168-71 177-163l-18 0c-13 0-23-11-23-23 0-14 10-24 23-24l17 0c-13-80-76-143-156-152z"/>
<glyph glyph-name="info" unicode="&#121;" d="M365 55l-7-29c-22-8-40-15-53-19-13-5-28-7-46-7-26 0-47 6-62 19-15 13-22 29-22 48 0 8 0 16 1 24 2 7 3 16 6 26l27 95c3 9 5 18 7 26 1 8 2 16 2 22 0 12-2 21-8 26-5 4-15 7-29 7-7 0-15-1-22-3-8-3-14-5-19-7l7 30c18 7 35 13 52 18 16 5 32 8 47 8 26 0 47-6 61-19 15-12 22-29 22-49 0-4-1-11-2-21-1-11-3-20-5-29l-28-95c-2-7-4-16-6-26-2-9-2-17-2-22 0-12 2-21 8-25 6-5 16-7 30-7 7 0 15 1 23 3 8 3 15 5 18 6z m7 397c0-16-6-30-19-42-13-12-28-17-46-17-18 0-34 5-47 17-13 12-19 26-19 42 0 17 6 31 19 42 13 12 29 18 47 18 18 0 33-6 46-18 13-11 19-25 19-42z"/>
<glyph glyph-name="yes" unicode="&#126;" d="M184 34c-16 0-31 8-41 21l-133 177c-17 23-12 56 11 73 23 18 55 13 73-10l90-122 219 293c17 23 50 27 73 10 23-17 27-50 10-73l-260-348c-10-13-25-21-42-21z"/>
</font>
</defs>
</svg>
